<?xml version="1.0" standalone="no"?>
<!DOCTYPE svg PUBLIC "-//W3C//DTD SVG 20010904//EN"
 "http://www.w3.org/TR/2001/REC-SVG-20010904/DTD/svg10.dtd">
<svg version="1.0" xmlns="http://www.w3.org/2000/svg"
 width="1720.000000pt" height="1720.000000pt" viewBox="0 0 1720.000000 1720.000000"
 preserveAspectRatio="xMidYMid meet">
<metadata>
Created by potrace 1.14, written by Peter Selinger 2001-2017
</metadata>
<g transform="translate(0.000000,1720.000000) scale(0.100000,-0.100000)"
fill="#000000" stroke="none">
<path d="M8300 17190 c-124 -4 -254 -10 -290 -14 -36 -3 -162 -15 -280 -27
-473 -45 -1102 -164 -1510 -286 -229 -68 -593 -190 -690 -231 -14 -6 -68 -28
-120 -48 -621 -241 -1291 -612 -1885 -1043 -633 -459 -1309 -1124 -1776 -1746
-295 -393 -477 -674 -726 -1125 -40 -72 -216 -423 -249 -497 -545 -1216 -796
-2434 -771 -3738 9 -459 39 -805 107 -1220 238 -1469 854 -2852 1782 -4002
281 -349 721 -809 1031 -1078 1010 -877 2095 -1466 3362 -1825 558 -158 1175
-262 1780 -300 207 -13 863 -13 1075 0 1140 70 2272 374 3300 886 602 301
1206 699 1715 1133 264 225 617 567 846 821 496 549 952 1216 1285 1882 514
1027 800 2061 896 3238 17 208 17 1043 0 1250 -115 1402 -505 2636 -1200 3797
-645 1077 -1538 2016 -2582 2715 -446 298 -871 532 -1330 732 -47 20 -93 42
-103 47 -21 12 -143 60 -237 94 -36 13 -108 40 -160 60 -153 58 -464 159 -600
195 -25 6 -92 25 -150 41 -169 48 -253 69 -281 69 -14 0 -51 9 -82 19 -31 11
-94 25 -139 31 -46 7 -119 20 -164 31 -45 10 -138 26 -208 34 -70 8 -131 17
-136 20 -16 10 -220 33 -350 40 -69 4 -138 10 -155 15 -85 25 -643 42 -1005
30z m770 -110 c129 -5 269 -16 310 -24 41 -8 140 -20 219 -26 132 -11 291 -33
309 -44 4 -2 52 -9 107 -16 104 -12 270 -52 317 -76 35 -18 36 -42 7 -150 -16
-63 -22 -126 -28 -314 -6 -187 -11 -241 -24 -266 -26 -49 -40 -203 -33 -345 8
-140 9 -138 -59 -159 -22 -7 -51 -20 -65 -28 -19 -13 -51 -17 -128 -17 -82 -1
-106 -4 -119 -18 -16 -16 -16 -19 0 -47 23 -38 15 -50 -33 -50 -29 0 -42 -5
-50 -19 -14 -27 -16 -24 38 -58 78 -51 154 -82 215 -89 l58 -7 123 -121 c68
-67 127 -132 131 -145 16 -50 -98 -143 -200 -162 -57 -11 -233 -7 -362 8 -49
5 -53 4 -53 -15 0 -14 14 -31 40 -48 39 -26 50 -47 30 -59 -15 -9 -78 -8 -136
2 -87 16 -113 -7 -76 -69 20 -34 129 -89 213 -107 29 -6 66 -20 83 -30 17 -10
66 -23 109 -29 115 -15 121 -25 42 -78 -36 -24 -98 -60 -138 -80 -39 -20 -83
-42 -97 -50 -14 -7 -39 -20 -57 -29 -17 -8 -35 -20 -38 -26 -12 -18 35 -57 88
-75 65 -22 242 -13 335 16 35 11 94 23 132 26 64 6 68 5 75 -15 6 -18 -2 -31
-39 -64 -77 -70 -109 -93 -171 -121 -53 -24 -68 -27 -125 -21 -53 5 -76 3
-123 -15 -31 -12 -57 -26 -57 -31 0 -5 -35 -26 -77 -46 -65 -31 -91 -38 -156
-41 -99 -5 -118 0 -161 45 l-35 38 64 23 c45 17 66 30 71 46 3 11 13 28 21 38
13 14 11 17 -22 28 -20 6 -43 24 -53 38 -9 15 -38 49 -64 77 -45 47 -88 138
-88 186 0 10 -16 55 -36 101 -33 75 -37 95 -44 208 -4 69 -13 145 -18 170 -6
25 -17 74 -24 109 -14 68 -40 100 -58 71 -21 -34 -34 -122 -35 -240 -2 -167
-13 -243 -46 -316 -24 -54 -31 -62 -61 -68 -24 -4 -45 -20 -73 -54 -22 -26
-43 -48 -47 -50 -12 -6 -9 -74 5 -123 8 -24 34 -71 59 -104 24 -33 48 -65 51
-72 5 -7 -23 -36 -69 -74 -76 -62 -76 -62 -104 -46 -23 14 -30 14 -39 4 -28
-34 33 -135 118 -197 33 -24 61 -47 61 -50 0 -13 -56 -59 -83 -69 -31 -12 -62
-6 -172 33 -85 31 -105 32 -138 6 l-26 -21 35 -64 c26 -48 34 -72 30 -92 -5
-23 1 -35 38 -73 66 -66 84 -80 119 -92 18 -6 41 -19 52 -29 11 -10 41 -27 68
-38 31 -14 51 -29 57 -46 14 -36 12 -163 -3 -201 -11 -30 -66 -82 -139 -132
-18 -12 -49 -34 -68 -47 -19 -14 -51 -32 -70 -40 -19 -9 -59 -28 -88 -42 -41
-20 -61 -24 -95 -20 -44 7 -177 72 -177 87 0 18 55 38 135 50 149 21 232 49
269 88 29 31 33 39 25 65 -7 25 -4 35 16 59 28 33 33 79 10 98 -10 8 -32 10
-67 6 -157 -18 -223 -18 -303 2 -70 18 -205 84 -205 101 0 13 178 180 236 221
11 8 29 27 39 43 17 26 17 28 0 47 -15 17 -31 20 -94 20 -83 0 -121 7 -121 22
0 5 12 25 26 43 28 37 145 100 205 110 19 4 40 10 46 13 13 9 56 94 72 143 6
19 27 51 46 69 19 19 35 39 35 46 0 21 -37 26 -94 14 -30 -6 -76 -11 -103 -10
-26 0 -87 -2 -135 -6 -93 -7 -118 1 -118 36 0 18 25 33 88 50 25 6 52 24 71
46 30 33 31 36 16 64 -19 36 -43 50 -88 50 -18 0 -57 7 -86 16 -49 14 -52 17
-46 41 3 15 19 42 36 62 16 20 29 45 29 56 0 12 5 26 11 32 8 8 -5 13 -48 18
-70 8 -108 32 -99 63 4 11 20 37 36 57 17 21 30 43 30 49 0 7 -22 34 -50 61
-27 28 -54 64 -59 80 -5 17 -12 98 -15 180 -6 156 -13 215 -26 215 -4 0 -10
-33 -13 -72 -19 -227 -45 -325 -100 -385 -30 -32 -30 -32 -25 -146 0 -19 -10
-39 -33 -63 -31 -32 -33 -39 -31 -93 4 -83 -9 -94 -84 -74 -73 19 -93 12 -69
-23 22 -34 13 -54 -24 -54 -42 0 -61 -9 -61 -30 0 -26 103 -116 172 -151 50
-25 57 -32 49 -48 -14 -26 -65 -45 -102 -37 -21 4 -43 -1 -72 -15 -61 -31 -77
-48 -77 -84 0 -35 35 -69 114 -110 88 -45 54 -62 -179 -91 -71 -9 -84 -14
-100 -37 -14 -22 -13 -29 9 -83 20 -50 30 -62 64 -79 65 -32 70 -41 42 -70
-35 -37 -16 -48 92 -53 80 -4 148 -21 148 -37 0 -3 -21 -16 -47 -29 -27 -13
-70 -36 -98 -50 -45 -22 -55 -24 -100 -15 -35 6 -60 19 -85 44 l-36 35 -59
-11 c-33 -6 -75 -17 -94 -25 -18 -8 -44 -14 -57 -14 -24 0 -32 14 -14 25 34
21 -44 111 -135 155 -39 19 -48 20 -80 9 -29 -11 -40 -10 -69 3 -38 18 -41 26
-51 111 -4 37 -14 67 -29 85 -12 15 -37 52 -54 83 l-31 56 -5 190 c-5 187 -10
223 -27 223 -19 0 -29 -43 -29 -124 0 -60 -6 -101 -20 -138 -13 -35 -19 -77
-19 -123 0 -39 -6 -89 -15 -114 -22 -60 -80 -136 -131 -171 -30 -20 -46 -40
-50 -61 -9 -40 1 -91 24 -120 25 -32 34 -75 21 -99 -9 -17 -21 -20 -93 -20
-45 0 -113 -7 -152 -15 -38 -8 -84 -15 -102 -15 -39 0 -53 -21 -53 -78 0 -48
-9 -57 -82 -72 -32 -6 -70 -17 -85 -25 -32 -16 -161 -35 -233 -35 -77 0 -75
33 11 143 14 19 24 50 28 90 6 51 14 71 44 111 71 92 78 119 32 128 -37 6 -46
44 -39 166 4 61 5 112 2 112 -13 0 -86 -41 -98 -54 -27 -34 -51 -9 -66 71 -14
78 -69 149 -144 188 -30 15 -65 78 -54 96 8 14 72 11 97 -5 12 -8 63 -30 113
-50 84 -33 100 -36 185 -35 171 2 203 24 76 50 -84 17 -97 27 -97 75 0 22 8
36 29 52 37 27 55 80 49 143 -7 69 -19 79 -93 79 -34 0 -77 5 -96 12 -44 15
-157 110 -191 161 -38 57 -25 70 56 62 53 -6 65 -4 89 15 19 15 27 31 27 52 0
22 13 45 51 86 28 31 59 71 67 90 l17 34 -37 33 c-44 40 -122 55 -192 35 -44
-12 -114 -7 -148 11 -10 5 -27 29 -38 52 l-21 42 22 18 c12 9 35 17 51 17 16
0 37 4 47 10 21 11 51 79 51 116 0 29 -36 104 -50 104 -5 0 -21 22 -34 48 -15
29 -40 59 -64 74 -53 36 -62 76 -62 286 0 168 -6 232 -20 232 -4 0 -10 -21
-12 -47 -5 -47 -13 -69 -44 -126 -9 -16 -23 -67 -31 -115 -8 -48 -17 -100 -20
-116 -4 -22 -15 -32 -44 -44 -44 -17 -54 -37 -39 -76 15 -42 12 -77 -13 -121
-24 -42 -46 -52 -115 -54 -44 -1 -82 -15 -82 -30 0 -5 16 -18 36 -30 26 -16
35 -27 32 -44 -2 -17 -11 -23 -41 -27 -60 -8 -39 -25 25 -22 92 6 176 -7 204
-32 l25 -21 -25 -36 c-21 -31 -39 -41 -128 -72 -57 -19 -127 -41 -156 -47 -28
-7 -54 -15 -56 -19 -3 -4 4 -21 15 -38 16 -25 35 -36 86 -53 87 -28 127 -49
191 -100 67 -54 62 -60 -78 -101 -81 -23 -131 -31 -234 -36 -72 -3 -139 -10
-148 -15 -12 -6 -18 -20 -18 -43 0 -29 6 -38 47 -66 27 -17 65 -38 87 -45 55
-20 66 -32 66 -69 0 -31 -4 -35 -77 -72 -72 -35 -86 -38 -183 -43 -101 -5
-134 -13 -128 -30 6 -17 160 -90 201 -96 23 -3 76 -12 117 -20 41 -8 86 -14
100 -13 57 3 81 -2 101 -22 12 -12 17 -25 13 -29 -5 -5 -49 -23 -98 -40 -79
-28 -99 -31 -165 -27 -42 2 -105 10 -141 16 -36 7 -85 9 -110 5 l-45 -6 38
-14 c21 -7 52 -25 68 -39 17 -13 55 -32 84 -41 64 -18 72 -27 51 -58 -8 -13
-12 -26 -9 -30 10 -9 82 -7 102 4 51 27 144 0 254 -74 51 -33 77 -66 77 -96 0
-5 -14 -17 -32 -26 -27 -14 -56 -16 -185 -12 -98 3 -156 1 -163 -6 -12 -12
-13 -80 -1 -123 21 -71 132 -145 248 -163 65 -11 168 -55 191 -83 10 -11 7
-21 -11 -48 -53 -79 -176 -130 -322 -133 -116 -3 -162 -24 -182 -80 -19 -57
-1 -97 75 -166 l63 -56 -21 -27 c-14 -18 -31 -27 -49 -27 -54 0 -92 -13 -108
-36 -14 -22 -14 -26 1 -49 23 -36 54 -53 131 -74 64 -18 105 -48 104 -76 0
-10 -43 -43 -129 -99 -25 -16 -70 -37 -100 -47 -30 -10 -81 -28 -113 -40 -54
-21 -59 -21 -75 -6 -14 15 -15 24 -4 77 11 50 10 64 -2 88 -14 28 -13 32 19
83 38 57 46 117 21 138 -15 13 -66 4 -141 -23 -53 -20 -179 -21 -194 -2 -10
12 -2 17 41 31 29 10 60 24 68 31 8 7 25 22 36 32 14 13 25 41 33 82 6 35 16
67 23 72 7 4 36 15 65 24 28 8 57 22 64 30 7 8 25 22 40 30 15 7 30 23 34 34
3 11 12 20 19 20 8 0 19 7 26 15 10 12 10 18 0 30 -13 16 -39 7 -69 -22 -7 -8
-28 -13 -45 -11 l-31 3 3 97 c3 95 3 97 -23 114 -25 16 -27 16 -53 -8 -67 -60
-188 -118 -248 -118 -18 0 -38 8 -49 20 -17 18 -17 21 0 62 9 24 24 51 33 61
24 27 34 136 15 166 -14 21 -20 23 -76 18 -48 -3 -72 0 -107 16 -84 37 -82 45
45 178 58 60 105 114 105 118 0 9 -48 21 -85 21 -12 0 -35 10 -50 21 -25 20
-32 21 -83 11 -49 -9 -59 -8 -69 6 -17 21 -16 67 1 81 64 53 61 414 -4 539
-51 97 -75 78 -83 -70 -6 -103 -42 -241 -80 -299 -9 -14 -18 -60 -22 -109 -4
-47 -11 -100 -17 -118 -11 -37 -16 -38 -93 -8 -38 14 -41 14 -57 -6 -27 -30
-22 -78 12 -131 17 -26 30 -50 30 -53 0 -3 13 -24 30 -47 16 -23 34 -63 41
-89 10 -43 9 -50 -12 -79 -12 -17 -41 -40 -64 -50 -42 -19 -95 -82 -95 -114 0
-29 -20 -55 -55 -70 -19 -7 -35 -18 -35 -22 0 -5 19 -19 42 -31 24 -13 65 -38
92 -56 48 -34 48 -34 25 -48 -18 -9 -86 -14 -261 -16 -139 -1 -249 -7 -265
-13 l-28 -11 24 -16 c56 -40 70 -60 77 -111 4 -28 12 -55 18 -59 6 -5 56 -14
111 -21 55 -6 110 -18 122 -26 13 -9 52 -21 89 -29 53 -11 74 -21 105 -52 21
-21 39 -43 39 -49 -1 -28 -44 -59 -134 -96 -95 -39 -101 -40 -176 -33 -73 6
-79 5 -90 -15 -6 -12 -10 -37 -9 -56 4 -40 -20 -71 -62 -80 -16 -4 -31 -11
-35 -16 -3 -5 -24 -19 -47 -31 -41 -21 -42 -21 -17 -31 14 -5 127 -12 252 -15
206 -4 229 -6 244 -23 16 -18 15 -21 -23 -58 -23 -21 -55 -41 -72 -44 -17 -4
-50 -15 -73 -26 -24 -10 -94 -26 -156 -35 -143 -21 -144 -21 -140 -60 3 -27 9
-33 53 -49 27 -10 56 -24 63 -30 8 -7 42 -21 76 -32 62 -21 66 -27 52 -72 -10
-31 16 -42 126 -52 129 -13 148 -22 148 -68 0 -17 -11 -28 -42 -44 -24 -12
-50 -27 -58 -34 -8 -7 -33 -18 -55 -25 -22 -7 -51 -21 -65 -30 -14 -10 -52
-26 -85 -35 -33 -10 -66 -22 -74 -29 -7 -6 -34 -18 -59 -27 -25 -8 -47 -20
-49 -26 -2 -6 20 -19 49 -28 29 -10 58 -21 63 -25 10 -7 108 -24 197 -35 44
-6 79 -27 61 -38 -56 -35 -158 -80 -210 -93 -89 -22 -142 -14 -218 36 -34 22
-66 40 -71 40 -16 1 -79 64 -110 109 -16 25 -48 65 -71 89 -67 68 -70 156 -6
164 24 3 28 8 31 39 2 25 -3 40 -18 54 -11 10 -20 23 -20 29 0 6 -16 21 -35
34 -30 19 -35 28 -35 59 0 26 8 45 26 64 l27 28 -37 35 c-21 19 -50 37 -65 41
-15 3 -42 21 -60 40 -18 19 -37 35 -42 35 -6 0 -19 20 -30 45 -11 24 -24 47
-29 50 -5 3 -14 31 -21 63 -7 31 -37 104 -67 162 l-54 105 -8 120 c-6 113 -8
123 -34 148 -15 15 -31 27 -35 27 -10 0 -57 -185 -69 -278 -7 -49 -19 -86 -35
-110 -14 -20 -28 -48 -32 -62 -4 -14 -15 -38 -25 -55 -10 -16 -22 -48 -25 -70
-15 -83 -115 -204 -187 -227 -44 -13 -63 -52 -47 -95 18 -47 -13 -143 -46
-143 -8 0 -15 -6 -15 -14 0 -7 -9 -25 -20 -39 -29 -37 -25 -68 13 -92 22 -14
35 -32 41 -57 9 -37 8 -39 -47 -97 -31 -33 -57 -66 -57 -73 0 -8 -22 -39 -50
-69 -27 -29 -50 -57 -50 -61 0 -4 -17 -12 -37 -18 -50 -15 -93 -66 -86 -103 7
-34 42 -45 90 -28 32 12 36 11 79 -24 l44 -37 -17 -30 c-23 -37 -116 -138
-128 -138 -6 0 -41 -25 -78 -54 -37 -30 -80 -57 -95 -61 -38 -8 -114 -71 -129
-107 -16 -37 -17 -84 -2 -93 6 -4 14 -17 18 -28 7 -17 -1 -33 -39 -77 -71 -84
-99 -146 -109 -247 -5 -49 -19 -124 -30 -168 -11 -44 -25 -145 -31 -225 -6
-80 -16 -176 -21 -215 -22 -166 -28 -268 -34 -570 -8 -371 6 -798 29 -895 8
-36 20 -141 25 -233 7 -102 18 -198 30 -245 25 -96 51 -237 51 -277 0 -16 12
-52 25 -80 19 -37 25 -66 25 -114 0 -53 5 -72 25 -101 19 -28 28 -58 35 -120
5 -45 17 -94 26 -108 9 -13 22 -59 30 -102 7 -42 22 -93 32 -111 11 -19 23
-61 26 -94 4 -38 15 -73 30 -95 14 -19 27 -59 31 -87 4 -29 16 -64 26 -77 11
-14 25 -51 31 -83 6 -31 22 -73 35 -92 13 -18 23 -41 23 -50 0 -9 11 -40 25
-69 13 -28 27 -69 31 -90 3 -20 17 -53 30 -72 12 -19 27 -54 32 -77 5 -23 19
-54 31 -69 12 -15 28 -51 37 -80 8 -29 21 -57 28 -64 8 -6 17 -23 21 -38 3
-15 16 -43 29 -62 12 -19 28 -50 34 -68 6 -18 20 -45 30 -60 11 -15 23 -38 27
-51 4 -12 18 -39 31 -58 13 -20 29 -53 34 -74 6 -21 19 -44 30 -52 11 -8 38
-53 60 -100 23 -48 45 -87 50 -87 4 0 16 -20 26 -46 9 -25 25 -50 34 -57 9 -7
23 -23 30 -37 7 -14 21 -35 32 -47 11 -12 23 -37 27 -55 5 -24 16 -38 42 -52
l36 -20 89 46 c49 25 103 53 119 61 17 9 50 26 75 38 142 69 199 99 204 108 4
6 26 16 49 22 41 11 170 68 257 113 25 13 65 29 90 36 24 7 55 20 68 31 14 10
32 19 41 19 10 0 48 16 87 35 38 19 75 35 82 35 7 0 32 11 55 24 23 13 64 29
91 35 27 7 60 21 74 32 14 10 34 19 46 19 11 0 52 16 90 35 39 19 77 35 86 35
8 0 35 11 60 24 25 13 61 27 80 31 19 4 55 18 80 31 25 13 54 24 66 24 12 0
42 11 68 25 26 14 68 30 94 36 26 5 67 23 91 40 24 16 58 29 74 29 16 0 59 14
97 30 38 17 77 30 88 30 10 0 40 11 65 24 25 14 73 30 107 36 33 6 82 22 110
36 27 13 109 40 182 58 73 19 152 44 175 55 23 12 47 21 53 21 7 0 48 16 91
35 53 23 95 35 125 35 25 0 57 6 72 14 15 7 53 19 84 26 39 9 66 22 84 41 25
26 34 29 91 29 41 0 72 6 88 16 13 8 52 22 87 30 35 8 86 23 113 34 28 10 77
25 110 34 33 8 89 24 125 36 36 12 85 29 110 37 25 8 81 25 125 38 240 71 277
84 300 109 18 19 34 26 62 26 21 0 62 11 91 25 28 13 69 27 90 31 20 4 53 15
72 25 19 9 55 20 80 24 25 4 65 18 90 31 25 12 74 28 110 34 36 6 75 18 87 26
13 8 50 21 84 30 34 9 80 24 103 34 23 10 62 21 86 25 25 4 61 15 80 25 19 9
60 23 90 30 30 7 78 23 106 36 28 13 73 27 100 30 27 4 70 17 95 30 25 12 74
28 110 34 35 6 71 18 79 25 8 7 38 19 65 25 28 7 66 23 86 37 20 13 58 26 85
30 41 4 53 11 70 37 14 21 26 30 40 27 49 -10 103 -5 121 12 11 9 44 21 73 27
30 6 71 22 91 36 23 15 59 28 93 33 31 4 64 15 75 25 10 9 42 23 70 31 28 7
65 22 83 33 18 11 49 23 68 27 19 4 55 20 79 36 25 16 51 29 59 29 8 0 68 27
134 60 67 33 126 60 133 60 7 0 24 9 38 20 14 11 45 27 68 35 24 9 51 24 61
35 11 11 23 20 27 20 5 0 30 17 55 38 26 21 70 51 99 66 98 50 224 177 255
256 6 14 20 49 32 78 l21 53 -30 63 c-17 34 -31 67 -31 71 0 5 -9 18 -19 30
-11 11 -46 49 -78 84 -32 35 -75 75 -97 90 -73 50 -141 91 -182 110 -31 14
-45 29 -53 53 -8 23 -41 57 -111 113 -54 44 -99 88 -99 97 -1 9 13 25 29 35
51 30 37 93 -25 113 -25 8 -41 23 -55 50 -20 39 -20 39 0 45 11 4 34 4 50 0
28 -6 30 -5 30 22 0 16 -7 39 -16 52 -11 15 -14 34 -11 57 5 32 3 36 -50 71
-30 21 -78 59 -105 85 -55 52 -58 76 -12 97 38 17 24 60 -37 119 -35 33 -53
59 -59 87 -11 44 -3 106 14 117 19 13 70 9 101 -8 51 -27 186 -75 265 -94 41
-10 91 -25 111 -33 20 -9 60 -19 90 -23 30 -4 77 -15 104 -25 28 -9 77 -23
110 -29 33 -6 85 -19 115 -30 80 -27 236 -53 280 -47 23 3 49 -1 64 -8 14 -8
63 -17 108 -21 50 -4 107 -16 143 -31 33 -13 93 -28 132 -33 40 -5 90 -18 111
-29 21 -11 72 -23 113 -27 40 -3 87 -13 102 -21 15 -8 81 -23 147 -33 65 -11
139 -27 165 -35 25 -9 89 -23 142 -31 53 -7 110 -21 127 -30 17 -8 69 -20 116
-25 47 -5 98 -18 115 -28 16 -9 73 -23 125 -30 52 -8 110 -22 128 -32 19 -11
53 -19 79 -19 27 0 65 -9 91 -22 25 -11 67 -23 94 -26 39 -4 52 -10 68 -32 26
-36 25 -44 -6 -64 -37 -25 -27 -47 29 -63 26 -7 47 -18 47 -22 0 -5 -29 -33
-65 -61 -59 -47 -65 -55 -65 -89 0 -32 -6 -43 -40 -70 -22 -18 -48 -44 -57
-58 -16 -24 -16 -26 2 -39 11 -8 43 -14 76 -14 32 0 70 -5 85 -10 26 -10 26
-11 8 -32 -11 -11 -39 -30 -64 -41 -25 -11 -60 -31 -77 -45 -18 -13 -50 -30
-70 -37 -59 -20 -51 -45 21 -66 33 -10 70 -29 82 -43 30 -32 70 -40 139 -27
50 9 61 8 95 -9 22 -11 52 -20 67 -20 15 0 55 -9 88 -19 97 -32 153 -42 195
-35 37 6 40 5 61 -31 25 -42 52 -55 113 -55 38 0 45 4 67 38 23 36 26 37 86
38 34 1 76 7 94 13 18 6 41 11 51 11 11 0 34 11 52 25 24 18 45 25 77 25 24 0
61 5 82 11 21 5 47 7 58 4 18 -6 20 -13 17 -53 -3 -26 -8 -55 -12 -64 -13 -28
36 -51 111 -52 89 -1 98 13 59 89 -22 44 -27 64 -21 91 3 19 11 37 18 39 101
35 127 48 127 64 0 22 -19 41 -43 41 -10 0 -30 9 -45 20 -14 11 -44 25 -68 31
-25 7 -55 25 -75 45 l-32 33 27 11 c15 5 53 10 84 10 31 1 75 7 96 15 36 13
46 12 100 -6 81 -27 85 -33 52 -68 -23 -24 -27 -35 -21 -59 3 -16 15 -38 26
-48 26 -24 24 -35 -13 -65 -31 -26 -32 -27 -15 -52 25 -39 22 -51 -32 -104
-60 -58 -85 -101 -69 -120 12 -15 76 -17 112 -4 22 9 25 7 31 -20 6 -26 2 -37
-26 -67 -19 -20 -35 -39 -37 -41 -1 -3 -15 10 -30 27 -37 43 -90 47 -129 10
-21 -19 -50 -30 -118 -42 -128 -25 -203 -47 -218 -65 -24 -29 -40 -80 -33
-112 4 -23 1 -37 -14 -53 -11 -11 -42 -52 -70 -90 l-51 -68 22 -24 c45 -48 10
-105 -109 -175 -37 -22 -62 -71 -62 -123 0 -25 -6 -38 -19 -46 -50 -26 -32
-90 25 -90 21 0 33 -4 29 -10 -3 -5 -15 -10 -26 -10 -11 0 -33 -9 -48 -21
l-28 -21 -37 24 c-53 33 -131 180 -144 271 -13 85 -56 151 -77 117 -3 -5 -13
-44 -21 -87 -8 -42 -20 -86 -28 -98 -7 -11 -19 -38 -26 -60 -18 -56 -55 -117
-90 -148 -16 -15 -30 -34 -30 -43 0 -9 -14 -48 -31 -87 -28 -62 -30 -75 -20
-101 9 -24 8 -35 -5 -53 -8 -13 -21 -26 -29 -29 -23 -9 -67 19 -102 64 l-32
43 18 30 c14 22 17 39 11 62 -11 51 -71 149 -112 185 -28 25 -42 48 -54 90 -9
31 -25 70 -36 85 -11 16 -24 57 -30 93 -13 79 -30 79 -40 1 -4 -31 -16 -73
-26 -94 -11 -21 -22 -49 -25 -63 -6 -24 -57 -97 -102 -145 -11 -12 -28 -32
-38 -44 l-18 -22 -26 21 c-14 11 -32 20 -39 20 -7 0 -29 35 -49 78 -20 42 -42
88 -49 102 -8 14 -21 58 -30 99 -19 85 -31 111 -50 111 -15 0 -66 -126 -86
-210 -7 -30 -20 -66 -28 -80 -9 -14 -24 -42 -33 -62 -10 -20 -27 -41 -38 -47
-26 -14 -37 -36 -72 -134 -21 -60 -26 -84 -18 -103 6 -17 5 -32 -3 -47 -17
-33 -83 -120 -101 -136 -21 -17 -22 -57 -3 -103 15 -35 15 -35 -22 -70 -20
-19 -50 -43 -67 -54 -68 -42 -85 -66 -85 -116 0 -40 -4 -49 -30 -68 -36 -26
-37 -34 -5 -66 24 -24 34 -68 18 -77 -5 -2 -24 -7 -44 -11 -33 -6 -38 -3 -68
35 l-33 40 21 23 c33 35 26 68 -28 133 -60 72 -82 121 -74 168 5 28 1 41 -16
59 -16 17 -21 34 -19 60 2 30 -4 43 -38 79 -53 55 -78 93 -94 141 -7 22 -21
53 -30 70 -10 17 -21 58 -25 91 -13 111 -42 126 -74 40 -12 -31 -21 -68 -21
-83 0 -16 -4 -32 -8 -38 -4 -5 -23 -45 -41 -89 -26 -63 -45 -91 -88 -132 -49
-47 -54 -55 -48 -82 4 -21 1 -38 -9 -53 -11 -15 -16 -44 -16 -85 0 -60 -2 -65
-41 -105 -51 -52 -67 -76 -78 -116 -8 -25 -5 -34 15 -53 13 -12 24 -26 24 -30
0 -22 -159 -149 -186 -149 -13 0 -28 -2 -36 -5 -7 -3 -22 1 -33 9 -15 11 -21
30 -25 83 -5 64 -7 69 -35 82 -16 8 -51 31 -76 52 -40 33 -48 47 -62 102 -8
35 -27 81 -41 102 -14 21 -26 47 -26 58 0 11 -9 34 -19 51 -12 20 -22 60 -26
111 -8 94 -22 148 -38 142 -27 -9 -57 -93 -62 -171 -4 -66 -10 -87 -35 -126
-17 -26 -30 -52 -30 -60 0 -7 -11 -33 -24 -59 -13 -25 -30 -66 -38 -91 -12
-40 -20 -49 -85 -89 l-72 -43 15 -30 c18 -34 6 -84 -26 -113 -11 -10 -29 -35
-40 -58 l-21 -40 32 -26 c29 -25 32 -31 26 -67 -4 -21 -12 -41 -19 -43 -6 -2
-22 -16 -35 -30 -13 -14 -32 -35 -43 -47 -11 -12 -20 -26 -20 -32 0 -6 -18
-32 -40 -57 -45 -52 -74 -102 -62 -108 4 -3 21 -8 38 -11 46 -10 67 -38 59
-75 -8 -36 -129 -154 -185 -180 -50 -23 -118 -80 -134 -112 -12 -24 -12 -30 1
-40 26 -22 34 -48 23 -69 -6 -11 -16 -20 -23 -20 -18 0 -87 -77 -87 -98 0 -24
10 -34 24 -23 12 9 175 45 181 39 2 -2 6 -14 10 -28 5 -23 -2 -32 -66 -80 -39
-30 -80 -63 -91 -73 -11 -10 -34 -23 -51 -29 -46 -16 -57 -27 -57 -58 0 -31
18 -40 86 -40 23 0 46 -6 52 -12 5 -7 12 -46 14 -86 5 -63 2 -77 -16 -105 -39
-57 -83 -141 -90 -171 -4 -16 -18 -42 -31 -58 -14 -17 -26 -47 -30 -76 -6 -53
-26 -128 -49 -187 -17 -46 -21 -122 -6 -159 8 -21 16 -26 46 -26 37 0 74 -22
74 -44 0 -6 -27 -35 -60 -64 -50 -44 -60 -59 -60 -85 0 -18 6 -42 14 -53 8
-11 22 -48 30 -82 16 -59 51 -153 82 -217 31 -63 45 -91 57 -112 27 -48 163
-241 199 -283 57 -66 62 -72 82 -103 9 -16 65 -76 123 -135 58 -59 118 -126
133 -149 29 -46 56 -77 111 -132 74 -73 291 -255 360 -301 28 -19 64 -46 78
-60 14 -13 69 -55 121 -92 52 -37 106 -77 120 -88 32 -28 131 -90 145 -91 29
-3 73 5 97 17 15 8 38 14 52 14 13 0 48 11 78 25 29 14 60 25 68 25 8 0 36 11
61 24 25 13 63 28 84 32 22 3 60 17 85 29 25 12 61 26 80 30 19 4 51 17 70 30
19 13 49 27 65 31 37 8 246 105 345 160 14 7 32 14 41 14 8 0 30 11 49 25 18
13 49 30 69 36 20 7 48 20 63 30 14 11 30 19 35 19 5 0 30 13 56 30 26 16 82
48 125 71 42 22 84 47 92 54 9 8 33 21 53 30 21 8 55 33 77 55 39 39 86 73
164 120 23 14 56 34 75 45 18 11 67 46 108 78 42 31 79 57 83 57 4 0 27 16 51
35 24 19 48 35 53 35 10 0 68 47 106 85 14 14 31 25 37 25 6 0 33 16 59 36 26
20 72 47 101 60 29 13 53 27 53 32 0 4 35 33 78 64 42 31 84 65 93 75 9 10 71
68 138 128 190 171 527 512 647 657 165 198 352 439 385 497 16 30 61 92 128
178 22 29 47 66 56 83 8 16 19 30 24 30 4 0 16 18 26 40 10 22 26 47 36 56 11
10 19 22 19 29 0 7 13 30 29 52 16 22 36 53 45 69 10 16 32 54 51 84 19 30 48
80 65 110 17 30 44 78 60 105 16 28 36 66 45 85 9 19 25 51 35 71 11 20 23 58
27 84 3 26 16 59 28 74 12 14 25 38 28 53 4 14 18 39 31 55 13 15 27 42 30 60
4 18 15 42 25 55 10 13 22 37 25 55 4 18 18 48 31 67 12 18 26 52 30 74 3 22
17 55 31 73 13 18 24 44 24 58 0 13 13 47 29 75 15 28 34 76 40 106 6 30 19
62 27 72 9 9 22 47 30 83 8 36 21 76 29 88 8 13 20 50 26 83 6 32 22 80 37
105 l26 46 -23 29 c-16 21 -20 35 -15 58 8 37 41 76 65 76 19 0 39 51 39 100
0 14 9 40 20 58 19 31 19 34 4 58 -10 14 -34 34 -55 45 -21 10 -52 31 -68 47
-16 15 -40 34 -52 43 l-23 16 23 12 c13 7 64 14 114 16 109 5 125 14 103 66
-11 26 -26 39 -60 52 -50 20 -55 31 -30 58 12 13 15 28 10 54 -6 29 -15 40
-54 60 -72 39 -132 85 -132 100 0 20 32 35 72 35 80 0 85 61 9 100 -60 30
-126 134 -114 179 4 18 13 21 53 21 27 0 55 2 63 6 23 8 -2 61 -56 119 -49 53
-57 75 -32 95 23 19 18 38 -15 55 -35 18 -38 42 -10 78 29 36 26 73 -7 94 -16
10 -47 33 -70 52 -36 29 -43 41 -43 70 0 27 7 41 32 61 28 24 31 30 19 44 -7
9 -20 16 -28 16 -8 0 -22 13 -31 29 -9 17 -27 35 -39 40 -13 6 -23 15 -23 20
0 9 60 31 82 31 4 0 29 21 54 47 45 44 46 48 33 72 -8 13 -27 28 -44 33 -68
21 -107 43 -116 66 -17 45 -12 50 69 67 42 9 95 21 117 26 37 11 38 12 20 26
-11 7 -39 19 -63 25 -23 6 -44 14 -47 18 -8 13 70 77 116 94 30 11 69 39 111
82 58 57 65 68 59 92 -9 34 -38 38 -149 21 -80 -12 -87 -11 -176 14 -50 15
-103 27 -117 27 -26 0 -119 47 -186 95 -50 35 -75 93 -53 120 19 23 130 82
170 90 19 4 78 7 130 6 145 -2 146 -1 162 72 13 59 16 63 58 84 41 19 100 76
100 95 0 4 -13 14 -30 23 -21 11 -62 15 -152 15 -98 0 -131 4 -164 19 -23 10
-60 22 -82 26 -23 4 -52 15 -64 24 -13 10 -43 28 -67 41 -43 22 -43 22 -24 41
10 11 37 22 59 25 21 3 73 14 114 24 41 11 94 24 118 30 24 6 42 17 42 25 0
13 -55 35 -90 35 -8 0 -21 4 -29 9 -12 7 -10 14 8 36 23 31 27 67 9 83 -7 5
-38 12 -68 15 -150 14 -238 30 -280 51 -25 13 -63 29 -85 36 -22 7 -47 18 -55
25 -8 7 -33 20 -55 30 -55 22 -103 70 -130 131 -12 28 -28 55 -34 58 -13 8
-14 55 -2 74 6 10 13 11 27 3 11 -6 53 -19 94 -29 81 -21 203 -17 248 7 30 16
28 26 -8 41 -46 19 -52 32 -36 71 8 19 24 43 35 53 14 13 21 31 21 57 0 42
-12 55 -52 50 -40 -4 -82 23 -121 78 -33 45 -63 72 -171 152 -35 26 -116 136
-116 157 0 6 -23 38 -51 72 l-50 61 35 14 c19 8 38 15 42 15 4 0 36 25 71 56
84 74 139 183 113 224 -8 13 -14 13 -44 -4 -57 -31 -84 -6 -112 104 -9 37 -26
76 -40 91 -13 14 -24 28 -24 31 0 4 -15 30 -32 59 l-33 52 -3 191 c-4 185 -5
194 -37 291 -19 55 -41 117 -49 137 -10 24 -16 67 -16 122 0 65 -4 89 -18 106
l-17 22 -20 -22 c-18 -20 -20 -41 -25 -224 -3 -110 -8 -206 -12 -212 -7 -10
-21 -75 -62 -279 -14 -70 -14 -90 -3 -164 15 -87 11 -132 -18 -228 -9 -28 -25
-59 -36 -69 -10 -9 -19 -22 -19 -29 0 -7 -9 -20 -20 -30 -25 -22 -19 -31 24
-39 42 -8 48 -16 74 -94 23 -69 22 -75 -20 -144 -43 -70 -74 -77 -191 -43 -50
14 -129 31 -175 36 -46 5 -99 16 -119 24 -19 8 -85 20 -146 26 -143 14 -177
27 -177 69 0 27 2 30 20 20 31 -17 344 -25 427 -11 l72 13 -44 38 c-24 21 -62
46 -85 56 -72 32 -47 45 102 52 l106 4 36 42 c90 102 114 166 80 214 -20 28
-71 29 -124 2 -53 -27 -112 -26 -169 5 -25 13 -64 32 -85 41 l-39 18 26 20
c14 12 53 36 86 55 67 38 94 71 93 112 -2 70 -46 86 -142 52 -42 -15 -54 -15
-102 -4 -30 8 -75 11 -99 9 -61 -7 -278 29 -309 50 -14 10 -41 24 -60 32 -19
8 -46 26 -60 40 -14 14 -45 42 -68 63 -46 41 -49 49 -27 67 10 9 52 10 157 5
123 -6 156 -4 233 14 139 31 226 59 249 80 12 10 36 26 54 35 37 19 62 38 105
79 16 15 37 32 48 37 23 13 25 36 4 43 -13 6 -67 3 -153 -8 -27 -3 -35 0 -44
21 -10 22 -5 31 68 108 103 110 126 140 158 207 27 58 32 79 18 79 -10 0 -111
-46 -132 -61 -8 -5 -28 -17 -44 -27 -15 -9 -44 -28 -64 -41 -20 -13 -56 -29
-80 -36 -24 -8 -53 -22 -64 -32 -25 -22 -128 -22 -293 2 -60 9 -160 20 -221
25 -116 8 -143 17 -203 69 l-33 29 28 15 c16 8 50 18 76 21 28 4 60 17 77 32
25 21 30 34 33 76 l3 52 116 46 c64 25 127 53 140 61 13 9 35 19 48 24 13 4
54 38 91 76 52 53 70 80 79 115 6 25 18 47 26 50 19 8 20 34 2 34 -8 0 -33
-15 -57 -32 -24 -18 -51 -39 -60 -46 -9 -7 -52 -19 -95 -27 -43 -9 -98 -22
-122 -30 -24 -8 -58 -15 -76 -15 -30 0 -122 42 -178 81 -15 10 -50 24 -78 30
-66 14 -129 66 -113 95 9 16 20 18 79 16 82 -4 162 11 221 39 47 23 138 112
148 144 4 11 16 34 29 50 22 30 55 89 55 99 0 3 -9 10 -21 16 -16 9 -28 6 -65
-15 -73 -43 -289 -58 -330 -24 -8 6 -14 25 -14 41 0 23 13 42 61 88 34 32 59
64 57 71 -7 23 -64 22 -115 -1 -32 -15 -76 -24 -133 -27 -78 -5 -87 -3 -114
18 -61 48 -71 131 -31 256 29 93 30 104 8 146 -13 25 -18 71 -23 207 -7 194
-7 194 -81 283 -46 55 -49 62 -49 117 0 70 -15 88 -57 68 -25 -12 -29 -21 -37
-81 -7 -54 -6 -78 8 -125 21 -70 18 -196 -8 -322 -21 -99 -17 -237 8 -309 9
-24 16 -58 16 -75 0 -67 -71 -162 -146 -195 -22 -10 -54 -36 -72 -59 -63 -79
-35 -131 108 -201 52 -25 95 -51 98 -58 5 -16 -122 -79 -178 -88 -45 -7 -165
-62 -209 -96 -13 -10 -50 -24 -84 -31 -54 -11 -61 -16 -74 -46 -12 -30 -12
-37 2 -58 28 -43 54 -52 177 -57 90 -3 124 -9 145 -22 27 -18 27 -18 6 -34
-11 -9 -33 -26 -49 -38 -15 -13 -53 -30 -84 -39 -56 -16 -101 -38 -132 -63
-37 -29 -12 -132 34 -145 40 -10 123 -6 174 9 60 18 258 25 274 9 7 -7 4 -28
-12 -72 -21 -58 -28 -67 -108 -125 -47 -35 -125 -82 -175 -106 -49 -23 -95
-45 -101 -49 -74 -47 -236 -183 -259 -219 -24 -36 -7 -48 69 -47 46 1 77 8
121 29 52 24 67 27 125 22 36 -3 78 -10 93 -16 l29 -11 -61 -61 c-34 -34 -61
-70 -61 -79 0 -10 -3 -25 -6 -33 -8 -21 18 -29 125 -37 128 -11 136 -21 69
-89 -53 -54 -142 -124 -222 -173 -47 -30 -97 -36 -115 -14 -9 11 -4 18 24 35
34 20 35 22 35 84 0 91 -4 93 -176 100 -121 6 -155 11 -240 38 -68 22 -112 43
-141 68 l-43 35 31 32 c30 31 31 34 24 93 -6 53 -15 73 -53 121 -2 3 -48 5
-102 5 -96 0 -99 1 -181 43 -46 24 -98 59 -116 78 -18 19 -38 34 -44 34 -10 0
-10 3 -2 11 14 14 115 14 163 -1 54 -16 241 -13 283 5 20 8 79 21 133 29 53 8
99 18 103 21 8 9 -28 35 -48 35 -38 0 -91 23 -127 54 l-39 34 37 22 c37 22 81
84 93 133 6 24 3 29 -29 42 -22 10 -68 15 -126 15 -69 0 -100 4 -128 19 -20
10 -62 24 -92 30 -64 13 -85 24 -76 40 11 17 128 78 166 86 32 7 79 38 144 95
15 14 41 52 57 84 39 80 53 94 116 112 29 8 55 19 58 24 15 24 -50 30 -357 34
-336 5 -395 8 -515 32 -89 17 -118 28 -153 58 -15 12 -41 28 -58 35 -23 10
-32 21 -37 48 -10 56 6 67 95 59 41 -3 106 -13 145 -21 92 -20 114 -19 188 6
119 40 120 47 17 80 -38 13 -68 24 -66 26 2 2 36 13 77 24 41 11 90 31 110 45
19 13 40 24 46 24 5 0 27 13 48 30 20 16 45 32 54 35 29 9 44 55 46 140 1 51
8 97 20 127 21 51 12 77 -12 41 -9 -13 -24 -23 -33 -23 -10 0 -31 -11 -47 -24
-45 -38 -150 -52 -291 -39 -65 6 -146 12 -182 13 -45 0 -73 6 -90 19 -14 10
-40 25 -57 35 -27 14 -33 22 -33 50 0 37 -3 35 107 65 49 13 184 120 213 168
25 42 17 85 -21 117 -16 13 -34 26 -41 28 -9 3 -4 30 19 99 36 109 34 178 -7
211 -29 24 -112 25 -131 2 -13 -15 -48 -41 -120 -87 -23 -15 -39 -17 -83 -12
-30 4 -63 13 -72 20 -16 11 -15 14 5 42 18 23 20 34 12 55 -8 22 -17 26 -70
32 -75 9 -97 33 -86 93 6 36 47 117 86 173 16 22 23 60 20 96 -2 22 -30 23
-56 2 -14 -11 -29 -17 -32 -14 -4 4 -11 70 -16 148 -6 106 -14 160 -33 217
-21 62 -27 107 -34 249 -10 197 -4 228 39 218 15 -3 65 -13 113 -21 48 -8 105
-22 127 -31 21 -8 79 -26 127 -39 129 -34 251 -71 314 -94 30 -11 64 -20 75
-21 11 0 37 -9 57 -19 20 -11 64 -27 99 -36 35 -9 75 -23 87 -32 13 -8 46 -21
74 -29 27 -9 64 -24 81 -35 18 -10 39 -19 48 -19 9 0 38 -12 65 -26 27 -15 71
-33 98 -41 27 -8 59 -21 70 -29 12 -7 41 -20 64 -28 24 -9 55 -25 69 -36 14
-11 32 -20 41 -20 14 0 151 -61 182 -81 8 -5 31 -17 50 -25 19 -9 92 -48 162
-88 125 -69 194 -108 276 -153 22 -13 44 -28 47 -33 4 -6 30 -21 58 -34 29
-12 58 -30 66 -39 7 -10 18 -17 22 -17 10 0 92 -53 139 -88 14 -11 41 -27 60
-37 32 -17 96 -62 128 -93 8 -7 27 -19 43 -27 16 -9 29 -19 29 -24 0 -5 14
-14 32 -22 17 -7 44 -24 59 -38 15 -14 49 -42 76 -61 26 -19 72 -55 102 -80
30 -25 65 -52 77 -60 32 -21 313 -258 408 -344 192 -173 642 -639 705 -729 9
-12 61 -76 116 -142 56 -66 110 -133 120 -149 11 -16 27 -39 37 -50 60 -71
128 -159 128 -165 0 -5 16 -28 35 -52 19 -24 35 -49 35 -54 0 -6 13 -23 30
-38 16 -16 30 -33 30 -38 0 -5 39 -66 86 -135 47 -70 88 -134 92 -143 5 -15
89 -149 132 -211 10 -14 27 -46 40 -70 12 -25 28 -52 35 -60 6 -8 18 -31 25
-50 8 -19 21 -46 30 -60 39 -59 77 -128 88 -160 7 -18 19 -41 27 -50 8 -9 21
-35 30 -59 8 -23 23 -54 33 -69 11 -15 25 -45 32 -67 7 -22 18 -47 25 -55 7
-8 18 -33 25 -55 7 -22 21 -51 31 -64 11 -13 24 -42 30 -65 6 -22 23 -68 38
-101 65 -140 119 -278 141 -352 9 -35 22 -68 28 -75 5 -7 18 -40 27 -73 10
-33 25 -76 35 -95 9 -19 23 -64 29 -100 7 -36 19 -75 27 -88 9 -13 22 -57 29
-98 8 -41 22 -88 30 -105 9 -17 22 -66 30 -109 8 -43 21 -92 29 -109 9 -16 23
-73 31 -127 9 -53 20 -105 26 -115 5 -10 16 -65 25 -121 8 -57 19 -120 25
-140 5 -21 13 -55 18 -75 6 -21 15 -87 21 -148 6 -60 17 -132 25 -160 17 -63
33 -212 40 -380 4 -71 13 -168 21 -214 31 -182 28 -801 -6 -1131 -5 -52 -14
-163 -19 -247 -6 -83 -20 -197 -31 -253 -11 -55 -25 -149 -30 -208 -6 -59 -20
-138 -31 -176 -11 -38 -24 -106 -29 -152 -5 -45 -16 -96 -24 -112 -9 -17 -23
-74 -31 -128 -9 -53 -23 -110 -31 -126 -8 -16 -21 -64 -29 -106 -7 -42 -23
-97 -34 -122 -11 -25 -21 -54 -21 -65 0 -18 -20 -83 -73 -245 -9 -25 -32 -90
-52 -145 -20 -55 -44 -125 -55 -156 -10 -31 -28 -74 -39 -95 -12 -21 -21 -46
-21 -54 0 -9 -9 -34 -21 -55 -11 -22 -27 -62 -36 -90 -8 -27 -23 -61 -33 -75
-9 -14 -21 -36 -25 -50 -7 -26 -69 -163 -85 -190 -5 -8 -46 -89 -91 -180 -45
-91 -100 -196 -122 -235 -22 -38 -51 -90 -64 -115 -13 -25 -36 -66 -51 -91
-15 -26 -40 -69 -55 -95 -15 -27 -38 -63 -50 -81 -12 -17 -35 -55 -52 -83 -16
-28 -40 -65 -53 -83 -12 -18 -42 -61 -67 -97 -104 -153 -149 -217 -172 -245
-14 -16 -53 -68 -88 -115 -118 -158 -302 -382 -444 -539 -132 -146 -549 -557
-681 -671 -14 -12 -38 -33 -54 -47 -15 -14 -42 -35 -60 -47 -17 -11 -40 -29
-51 -38 -70 -62 -86 -76 -116 -101 -79 -65 -198 -157 -204 -157 -4 0 -22 -12
-40 -27 -18 -16 -56 -44 -84 -63 -28 -19 -84 -60 -125 -90 -41 -30 -118 -82
-171 -115 -53 -33 -109 -70 -123 -81 -15 -12 -45 -31 -67 -43 -22 -12 -60 -35
-85 -51 -25 -16 -68 -42 -97 -57 -59 -32 -146 -81 -218 -123 -27 -16 -66 -36
-85 -44 -19 -9 -51 -25 -70 -36 -59 -33 -319 -160 -328 -160 -5 0 -15 -6 -22
-14 -6 -8 -40 -24 -76 -36 -35 -12 -66 -25 -69 -30 -3 -5 -29 -16 -58 -25 -28
-10 -61 -23 -73 -30 -11 -7 -43 -20 -71 -28 -27 -8 -72 -26 -99 -40 -27 -13
-62 -27 -79 -31 -16 -4 -48 -15 -70 -26 -37 -17 -63 -26 -210 -74 -27 -9 -70
-24 -95 -32 -25 -9 -84 -26 -133 -39 -48 -12 -93 -27 -100 -33 -6 -5 -47 -17
-90 -26 -42 -8 -90 -22 -105 -30 -15 -8 -62 -19 -106 -26 -43 -6 -97 -20 -121
-30 -23 -10 -92 -25 -153 -34 -61 -9 -129 -23 -151 -31 -22 -7 -83 -19 -136
-25 -53 -5 -131 -19 -173 -30 -42 -10 -137 -24 -210 -29 -74 -6 -173 -17 -220
-25 -354 -59 -1498 -56 -1742 4 -19 5 -90 14 -156 19 -67 6 -166 20 -221 30
-55 11 -146 27 -202 35 -56 9 -110 20 -120 25 -10 6 -65 17 -122 26 -57 9
-131 25 -164 35 -33 11 -89 24 -125 30 -35 7 -76 17 -90 25 -14 7 -63 21 -110
30 -47 10 -101 26 -120 36 -20 9 -62 22 -95 28 -32 6 -69 18 -82 26 -13 9 -49
21 -81 26 -31 6 -70 18 -87 27 -29 15 -145 59 -235 88 -25 8 -63 23 -85 33
-22 10 -75 35 -119 55 -43 20 -83 36 -90 36 -12 0 -53 19 -189 86 -37 19 -71
34 -77 34 -14 0 -220 104 -292 148 -18 11 -44 23 -58 27 -14 4 -43 20 -65 35
-22 15 -47 30 -55 33 -8 4 -44 25 -80 47 -36 22 -83 48 -105 58 -22 11 -67 37
-99 58 -118 78 -142 94 -186 119 -25 14 -61 37 -80 50 -19 14 -66 46 -103 72
-156 110 -192 136 -287 208 -21 17 -61 46 -87 65 -26 19 -57 44 -69 55 -11 11
-42 36 -68 55 -52 38 -177 144 -301 254 -89 79 -547 536 -640 638 -33 36 -85
96 -117 134 -31 38 -102 123 -157 188 -56 66 -113 138 -128 160 -16 23 -48 67
-73 98 -25 31 -61 80 -80 108 -19 28 -46 67 -60 86 -48 65 -92 130 -155 229
-35 55 -73 114 -85 130 -44 63 -90 140 -90 151 0 7 -11 25 -24 41 -13 15 -32
44 -42 64 -39 74 -72 136 -114 209 -23 41 -48 92 -56 113 -7 21 -22 50 -32 65
-10 15 -25 43 -32 62 -7 19 -18 42 -25 50 -21 28 -95 186 -95 204 0 10 -11 31
-25 48 -14 16 -25 37 -25 45 0 9 -14 45 -30 80 -17 34 -30 68 -30 74 0 6 -9
28 -20 48 -18 33 -37 82 -85 226 -9 28 -27 73 -40 100 -13 28 -28 74 -34 104
-6 29 -18 65 -26 80 -17 28 -55 150 -87 276 -11 44 -26 92 -34 107 -8 15 -21
66 -29 114 -9 47 -22 102 -30 122 -9 20 -22 78 -31 130 -8 53 -22 111 -29 130
-8 19 -20 75 -26 125 -6 51 -20 126 -30 167 -11 41 -24 122 -30 180 -5 58 -18
150 -28 205 -11 57 -24 196 -31 325 -6 124 -15 258 -21 298 -12 95 -12 674 1
760 5 37 14 171 20 297 7 139 19 272 30 335 11 58 24 153 30 212 5 59 18 141
29 183 11 42 25 116 31 163 6 48 17 105 25 127 8 22 23 88 34 146 10 59 24
116 31 128 6 12 17 57 25 101 8 43 20 91 28 107 8 15 22 63 31 106 8 42 22 90
31 107 8 16 20 52 26 81 6 29 22 75 35 103 13 28 24 63 24 77 0 14 11 47 25
74 13 27 29 69 34 95 5 25 21 66 35 91 14 24 26 53 26 64 0 11 11 42 24 70 35
72 96 211 96 219 0 13 181 390 215 446 8 14 22 41 30 60 9 19 30 60 47 90 16
30 44 80 60 110 16 30 41 76 56 101 15 26 38 67 51 90 13 24 34 58 47 75 13
17 24 33 24 36 0 8 61 109 85 140 11 14 28 39 37 55 10 15 31 48 48 73 17 25
38 58 48 73 9 16 43 63 74 105 56 76 87 119 151 208 62 88 331 415 387 472 20
20 41 44 46 54 12 22 405 419 525 531 52 48 119 111 150 140 30 28 73 66 95
84 21 17 86 71 144 120 58 49 118 97 134 108 40 28 73 52 152 112 38 28 86 64
107 80 21 15 50 38 65 49 26 21 47 34 121 79 18 11 49 32 68 48 20 15 39 27
44 27 5 0 23 13 41 28 18 16 80 57 138 92 58 34 116 70 129 79 33 22 106 65
166 96 28 14 76 41 108 58 104 58 342 177 353 177 6 0 26 10 45 23 19 12 50
29 69 37 19 7 46 21 60 31 14 9 41 20 60 24 19 4 51 17 71 30 20 13 55 29 78
35 23 6 63 22 88 35 25 14 52 25 60 25 8 0 32 9 55 21 23 12 64 28 92 36 28 8
67 23 86 33 19 9 56 22 82 29 26 6 62 20 80 30 18 11 53 22 78 26 25 4 64 15
87 25 23 10 68 24 100 31 32 7 74 20 93 29 19 10 55 21 80 25 25 4 79 18 120
31 41 12 104 28 140 34 36 6 90 19 120 30 30 10 95 24 144 30 49 6 105 18 123
25 19 8 73 19 121 25 111 14 179 25 267 44 39 8 142 19 230 26 88 6 195 18
239 26 147 29 717 41 1136 24z m881 -3376 c11 -14 10 -18 -6 -30 -10 -8 -29
-14 -42 -14 -13 0 -50 -23 -86 -54 -59 -50 -186 -126 -210 -126 -6 0 -27 -11
-47 -25 -51 -36 -118 -43 -150 -17 l-25 21 40 16 c22 10 43 22 46 29 12 19 63
86 96 124 l31 37 108 1 c104 1 108 2 126 27 16 22 28 27 63 27 27 0 47 -6 56
-16z m-13 -336 c22 -22 12 -45 -34 -81 -57 -45 -107 -57 -134 -32 -15 14 -17
22 -8 48 16 49 34 61 96 68 31 3 59 7 63 8 3 0 10 -4 17 -11z m972 -149 c0 -4
-9 -13 -19 -18 -29 -16 -48 11 -32 47 l13 27 19 -24 c10 -13 19 -27 19 -32z
m-3625 -289 c44 -23 85 -34 169 -46 150 -20 161 -29 161 -123 l0 -71 -48 -45
c-27 -25 -54 -45 -60 -45 -6 0 -21 -9 -33 -21 -12 -12 -28 -18 -34 -14 -14 8
-4 63 15 85 18 20 35 65 45 119 7 37 5 46 -12 63 -16 16 -28 19 -60 14 -22 -4
-53 -13 -68 -21 -26 -13 -39 -13 -125 5 -113 23 -115 24 -115 53 0 31 26 65
53 70 45 9 56 6 112 -23z m-1213 -397 c10 -9 18 -29 18 -45 0 -16 10 -43 23
-59 32 -44 32 -168 0 -219 -13 -19 -28 -46 -34 -60 -31 -71 -35 -75 -67 -78
l-32 -3 0 78 c-1 101 -20 141 -75 160 -22 7 -46 15 -52 18 -13 4 31 79 62 105
8 7 25 29 36 49 21 38 62 70 88 71 8 0 23 -7 33 -17z m4406 -295 c17 -17 15
-80 -3 -104 -14 -18 -16 -17 -55 26 -22 25 -40 50 -40 57 0 28 75 44 98 21z
m-5923 -238 c17 -19 17 -20 -18 -35 -43 -18 -71 -19 -98 -5 -28 15 -24 29 14
45 45 20 81 18 102 -5z m7050 -84 c15 -8 55 -17 89 -21 100 -12 115 -29 76
-92 -28 -47 -67 -45 -147 10 -58 39 -63 45 -63 80 0 41 5 44 45 23z m985 -13
c0 -38 -38 -113 -75 -149 -74 -71 -101 -84 -218 -105 -61 -11 -139 -27 -172
-36 -120 -30 -130 -30 -159 13 -14 21 -26 43 -26 47 0 5 -11 22 -25 39 -15 18
-25 42 -25 61 0 18 -9 47 -20 64 l-19 33 22 12 c16 10 92 13 287 14 220 0 272
3 305 16 22 9 59 17 83 17 39 1 42 -1 42 -26z m-7879 -193 c25 -14 24 -29 -4
-64 -22 -28 -24 -28 -53 -13 -82 43 -73 76 24 86 7 0 22 -4 33 -9z m3467 -27
c-10 -2 -26 -2 -35 0 -10 3 -2 5 17 5 19 0 27 -2 18 -5z m1277 -39 c225 -4
342 -10 395 -21 48 -10 155 -17 300 -19 313 -6 474 -19 540 -42 33 -11 97 -21
160 -25 65 -4 130 -14 170 -27 40 -13 112 -25 188 -30 74 -5 158 -19 215 -34
50 -14 104 -28 120 -31 21 -4 27 -11 27 -33 0 -62 -20 -100 -70 -137 -62 -45
-68 -83 -20 -111 39 -23 44 -41 19 -62 -11 -9 -33 -29 -49 -44 -15 -16 -31
-28 -35 -28 -3 0 -28 -19 -55 -42 -41 -35 -48 -46 -43 -69 4 -20 -3 -35 -29
-65 -46 -54 -48 -55 -88 -50 -23 4 -50 -2 -80 -15 -33 -16 -80 -24 -179 -31
-107 -7 -147 -15 -195 -35 -51 -21 -72 -24 -137 -21 -70 3 -81 6 -109 33 -42
40 -56 68 -71 144 -9 50 -21 73 -55 113 -29 34 -45 63 -49 92 -7 43 -29 86
-44 86 -8 0 -13 -9 -45 -102 -10 -26 -32 -66 -51 -91 -20 -26 -40 -70 -50
-108 -9 -35 -28 -82 -41 -105 -13 -22 -24 -57 -24 -77 0 -28 -6 -40 -29 -56
-43 -31 -69 -38 -177 -51 -54 -6 -117 -20 -139 -30 -22 -11 -78 -24 -125 -29
-47 -5 -106 -19 -131 -30 -25 -11 -82 -27 -128 -35 -45 -7 -90 -21 -99 -29 -9
-8 -37 -18 -62 -22 -101 -16 -270 -140 -270 -197 0 -30 36 -98 59 -112 8 -5
25 -20 37 -33 12 -12 26 -23 33 -23 6 0 28 -15 48 -34 21 -18 48 -39 61 -45
23 -12 23 -13 6 -32 -9 -10 -23 -19 -29 -19 -27 0 -36 -30 -37 -126 0 -54 -4
-108 -7 -121 -3 -12 -29 -46 -57 -76 -65 -68 -75 -103 -39 -137 14 -13 25 -26
25 -30 0 -18 -91 -105 -147 -141 -55 -34 -63 -43 -57 -62 3 -12 7 -24 8 -27 0
-3 -8 -25 -18 -48 -20 -44 -42 -56 -95 -54 -56 2 -198 32 -241 50 -25 11 -70
23 -100 27 -30 4 -80 17 -110 30 -30 12 -86 25 -125 29 -41 4 -82 15 -101 26
-17 11 -66 25 -110 31 -43 6 -82 13 -85 15 -9 5 49 66 84 89 30 19 36 49 11
59 -9 3 -37 6 -63 6 -35 0 -58 7 -84 24 -20 14 -53 29 -73 35 -41 11 -146 80
-139 91 9 15 101 29 173 28 86 -2 106 10 94 57 -6 22 -21 37 -55 56 -67 36
-72 43 -72 106 0 58 0 57 -55 82 -14 6 -39 21 -56 34 -18 12 -40 27 -50 33
-18 11 -18 12 -1 32 10 11 30 23 45 27 39 10 52 24 52 55 0 19 -7 30 -24 38
-13 6 -45 30 -70 53 -72 66 -75 146 -5 132 29 -6 89 13 89 28 0 19 -43 79 -61
84 -27 9 -57 81 -52 125 4 31 0 38 -32 58 -19 12 -35 26 -35 31 0 5 15 14 33
21 54 22 58 28 40 65 -9 18 -13 40 -10 49 4 9 37 30 74 48 66 31 74 33 233 39
137 5 174 9 218 27 50 21 69 22 280 22 234 -1 313 8 562 66 107 25 150 33 246
43 51 5 106 17 124 26 17 9 69 22 115 30 45 7 93 20 106 28 13 9 44 21 69 27
25 7 64 28 88 47 35 28 42 40 42 69 0 32 -27 74 -49 74 -4 0 -25 13 -45 29
-20 16 -56 32 -79 36 -23 4 -57 16 -75 27 -19 12 -63 24 -100 28 -37 4 -87 16
-112 28 -51 23 -84 29 -187 36 -40 3 -86 12 -102 20 -16 9 -48 18 -72 22 -58
9 -92 27 -113 59 -28 42 -9 54 97 58 51 2 139 2 197 0 58 -1 249 -5 425 -9z
m-1056 -8 c9 -11 5 -15 -19 -20 -31 -6 -113 1 -140 12 -19 7 38 19 101 21 29
0 51 -4 58 -13z m5880 -272 c21 -4 41 -20 61 -47 35 -48 30 -59 -41 -82 -67
-23 -51 -40 44 -48 39 -4 96 -14 125 -22 49 -15 59 -15 115 -1 58 15 63 15 75
-1 6 -9 12 -32 12 -50 0 -38 -27 -61 -82 -69 -45 -8 -196 23 -228 45 -14 10
-44 28 -67 40 -23 11 -44 30 -48 40 -4 13 -19 23 -43 27 -47 9 -182 71 -182
83 0 31 22 60 52 69 64 21 151 27 207 16z m-2014 -134 c14 -5 31 -14 38 -20 6
-6 24 -19 40 -31 43 -32 38 -80 -14 -130 -55 -53 -85 -52 -150 4 l-50 42 36
30 c33 28 35 33 25 59 -18 48 15 69 75 46z m-9435 -98 c49 -19 60 -40 40 -77
-10 -18 -9 -28 5 -55 l17 -33 282 5 c154 3 273 3 263 1 -10 -3 -20 -17 -23
-31 -5 -22 -20 -34 -82 -64 -42 -21 -114 -46 -158 -57 -72 -17 -89 -18 -140
-6 -71 15 -94 24 -94 36 0 5 -15 16 -32 25 -30 15 -62 65 -81 125 -4 10 -22
19 -50 23 -72 11 -104 56 -77 107 14 24 67 25 130 1z m11244 -241 c53 -9 66
-21 66 -67 0 -65 -34 -66 -165 -9 -96 41 -103 48 -74 69 25 17 92 20 173 7z
m-1236 -488 c3 -47 -28 -131 -59 -159 -19 -17 -21 -16 -52 13 -17 17 -47 38
-64 47 -18 9 -33 21 -33 27 0 30 148 121 190 116 10 -2 16 -16 18 -44z m1332
-353 c69 -5 126 -9 127 -10 5 0 -33 -66 -42 -72 -5 -5 -28 -13 -50 -18 -22 -6
-70 -22 -107 -37 -132 -51 -192 -29 -192 73 0 73 17 88 89 79 28 -3 106 -10
175 -15z m-5290 -1020 c0 -5 -4 -10 -9 -10 -6 0 -13 5 -16 10 -3 6 1 10 9 10
9 0 16 -4 16 -10z m-1991 -2524 c9 -11 8 -18 -5 -31 -15 -15 -19 -15 -32 -1
-17 17 -10 46 11 46 8 0 20 -6 26 -14z m5536 -2721 c0 -25 -24 -30 -50 -10
-17 13 -18 16 -5 25 24 16 55 8 55 -15z"/>
<path d="M7565 14350 c-10 -17 12 -37 25 -24 8 8 6 15 -4 23 -10 9 -16 9 -21
1z"/>
</g>
</svg>
